<svg width="190" height="130" viewBox="0 0 190 130" fill="none" xmlns="http://www.w3.org/2000/svg">
<g id="Logo TechTalk" clip-path="url(#clip0_0_1)">
<g id="Logo">
<path id="point-6" d="M156.959 30.0501C157.92 30.0487 158.859 30.3322 159.658 30.8646C160.457 31.397 161.081 32.1544 161.449 33.041C161.818 33.9276 161.915 34.9035 161.728 35.8453C161.542 36.787 161.08 37.6523 160.401 38.3317C159.723 39.011 158.858 39.4738 157.916 39.6616C156.974 39.8494 155.997 39.7537 155.11 39.3866C154.222 39.0195 153.464 38.3976 152.93 37.5994C152.396 36.8012 152.112 35.8628 152.112 34.9027C152.112 33.6169 152.622 32.3836 153.531 31.4737C154.44 30.5639 155.673 30.0518 156.959 30.0501Z" fill="#5FBBE8"/>
<path id="point-5" d="M141.629 30.0501C142.589 30.0501 143.528 30.3347 144.326 30.8679C145.125 31.4011 145.747 32.159 146.114 33.0457C146.482 33.9324 146.578 34.9081 146.39 35.8494C146.203 36.7907 145.741 37.6554 145.062 38.3341C144.383 39.0127 143.518 39.4749 142.576 39.6621C141.635 39.8494 140.659 39.7533 139.771 39.386C138.884 39.0187 138.126 38.3967 137.593 37.5987C137.059 36.8007 136.775 35.8625 136.775 34.9027C136.774 34.2652 136.899 33.6338 137.142 33.0446C137.386 32.4555 137.744 31.9202 138.195 31.4694C138.646 31.0186 139.181 30.6612 139.77 30.4176C140.36 30.1741 140.991 30.0492 141.629 30.0501Z" fill="#5FBBE8"/>
<path id="point-4" d="M126.292 30.0501C127.252 30.0501 128.191 30.3347 128.989 30.8679C129.788 31.4011 130.41 32.159 130.777 33.0457C131.145 33.9324 131.241 34.9081 131.054 35.8494C130.866 36.7907 130.404 37.6554 129.725 38.3341C129.046 39.0127 128.181 39.4749 127.239 39.6621C126.298 39.8494 125.322 39.7533 124.435 39.386C123.547 39.0187 122.789 38.3967 122.256 37.5987C121.722 36.8007 121.438 35.8625 121.438 34.9027C121.437 34.2652 121.562 33.6338 121.805 33.0446C122.049 32.4555 122.407 31.9202 122.858 31.4694C123.309 31.0186 123.844 30.6612 124.434 30.4176C125.023 30.1741 125.655 30.0492 126.292 30.0501Z" fill="#5FBBE8"/>
<path id="point-3" d="M63.7077 39.7216C66.3851 39.7216 68.5555 37.552 68.5555 34.8757C68.5555 32.1994 66.3851 30.0298 63.7077 30.0298C61.0303 30.0298 58.8599 32.1994 58.8599 34.8757C58.8599 37.552 61.0303 39.7216 63.7077 39.7216Z" fill="#2D4C7E"/>
<path id="point-2" d="M48.3708 30.0501C49.3312 30.0487 50.2704 30.3322 51.0697 30.8646C51.8689 31.397 52.4921 32.1544 52.8606 33.041C53.2291 33.9276 53.3262 34.9035 53.1396 35.8453C52.953 36.787 52.4912 37.6523 51.8126 38.3317C51.1339 39.011 50.2689 39.4738 49.3271 39.6616C48.3852 39.8494 47.4087 39.7537 46.5213 39.3866C45.6339 39.0195 44.8753 38.3976 44.3416 37.5994C43.8078 36.8012 43.523 35.8628 43.5229 34.9027C43.5229 33.6169 44.0335 32.3836 44.9424 31.4737C45.8514 30.5639 47.0844 30.0518 48.3708 30.0501Z" fill="#2D4C7E"/>
<path id="point-1" d="M33.0405 39.7216C35.7178 39.7216 37.8883 37.552 37.8883 34.8757C37.8883 32.1994 35.7178 30.0298 33.0405 30.0298C30.3631 30.0298 28.1926 32.1994 28.1926 34.8757C28.1926 37.552 30.3631 39.7216 33.0405 39.7216Z" fill="#2D4C7E"/>
<path id="Vector" d="M95 20.1095C94.427 20.1095 93.8595 20.2223 93.3301 20.4416C92.8007 20.6608 92.3196 20.9821 91.9144 21.3871C91.5092 21.7922 91.1878 22.273 90.9685 22.8023C90.7492 23.3315 90.6363 23.8987 90.6363 24.4715V50.6839C90.6345 53.3346 89.5808 55.8764 87.7063 57.7514C85.8319 59.6263 83.2898 60.6814 80.6381 60.6849H43.7515L36.6781 68.3201L29.598 60.6849H18.7257C16.0733 60.6814 13.5306 59.6266 11.655 57.7518C9.77951 55.877 8.72428 53.3353 8.72072 50.6839V18.7182C8.7225 16.0663 9.77716 13.5236 11.6531 11.6484C13.529 9.77323 16.0727 8.71898 18.7257 8.7172H81.7139C82.8603 5.53889 84.5482 2.5828 86.7029 -0.0202637H18.7257C13.761 -0.0149264 9.00111 1.95889 5.49052 5.4681C1.97993 8.97732 0.00533937 13.7353 0 18.6981V50.6301C0.00533937 55.5929 1.97993 60.3509 5.49052 63.8601C9.00111 67.3693 13.761 69.3431 18.7257 69.3485H25.7923L36.6781 81.1306L47.5639 69.3888H80.6381C85.6028 69.3835 90.3626 67.4096 93.8732 63.9004C97.3838 60.3912 99.3584 55.6332 99.3637 50.6705V24.4581C99.3602 23.3035 98.8988 22.1975 98.0809 21.3824C97.2629 20.5672 96.155 20.1095 95 20.1095Z" fill="#5FBBE8"/>
<path id="Vector_2" d="M171.274 0H109.362C104.397 0.00533728 99.6373 1.97916 96.1268 5.48837C92.6162 8.99758 90.6416 13.7556 90.6362 18.7183V33.6527C90.6362 34.8113 91.0967 35.9225 91.9163 36.7418C92.7359 37.5611 93.8476 38.0214 95.0067 38.0214C96.1658 38.0214 97.2774 37.5611 98.0971 36.7418C98.9167 35.9225 99.3771 34.8113 99.3771 33.6527V18.7183C99.3789 16.0676 100.433 13.5259 102.307 11.6509C104.182 9.7759 106.724 8.72086 109.375 8.7173H171.288C173.941 8.71908 176.484 9.77333 178.36 11.6485C180.236 13.5237 181.291 16.0664 181.293 18.7183V50.6504C181.289 53.3017 180.234 55.8435 178.358 57.7183C176.483 59.5931 173.94 60.6479 171.288 60.6514H160.402L153.322 68.2866L146.248 60.6514H108.279C107.133 63.8298 105.445 66.7858 103.29 69.3889H142.436L153.322 81.1307L164.208 69.3889H171.274C176.239 69.3836 180.999 67.4097 184.509 63.9005C188.02 60.3913 189.995 55.6333 190 50.6706V18.7183C189.995 13.7556 188.02 8.99758 184.509 5.48837C180.999 1.97916 176.239 0.00533728 171.274 0Z" fill="#2D4C7E"/>
</g>
<g id="TextLogo">
<g id="TECHTALK">
<path d="M39.3097 115.131V98.0426H44.1097V115.131H39.3097ZM34.1977 102.123V98.0426H49.2457V102.123H34.1977ZM51.05 115.131V98.0426H55.85V115.131H51.05ZM54.938 115.131V111.147H64.106V115.131H54.938ZM54.938 108.363V104.475H63.218V108.363H54.938ZM54.938 102.027V98.0426H63.962V102.027H54.938ZM74.5449 115.419C73.2329 115.419 72.0089 115.203 70.8729 114.771C69.7529 114.323 68.7689 113.699 67.9209 112.899C67.0729 112.099 66.4089 111.163 65.9289 110.091C65.4649 109.003 65.2329 107.827 65.2329 106.563C65.2329 105.283 65.4649 104.107 65.9289 103.035C66.4089 101.963 67.0649 101.035 67.8969 100.251C68.7449 99.4666 69.7289 98.8586 70.8489 98.4266C71.9689 97.9786 73.1849 97.7546 74.4969 97.7546C75.8249 97.7546 77.0409 97.9626 78.1449 98.3786C79.2489 98.7946 80.2089 99.3706 81.0249 100.107L77.8329 103.323C77.4489 102.907 76.9769 102.579 76.4169 102.339C75.8729 102.099 75.2329 101.979 74.4969 101.979C73.8569 101.979 73.2649 102.083 72.7209 102.291C72.1929 102.499 71.7369 102.803 71.3529 103.203C70.9689 103.603 70.6649 104.091 70.4409 104.667C70.2329 105.227 70.1289 105.859 70.1289 106.563C70.1289 107.283 70.2329 107.931 70.4409 108.507C70.6649 109.067 70.9689 109.547 71.3529 109.947C71.7369 110.347 72.1929 110.659 72.7209 110.883C73.2649 111.091 73.8569 111.195 74.4969 111.195C75.2169 111.195 75.8569 111.083 76.4169 110.859C76.9929 110.635 77.4889 110.307 77.9049 109.875L81.1209 113.091C80.2729 113.827 79.3209 114.403 78.2649 114.819C77.2089 115.219 75.9689 115.419 74.5449 115.419ZM82.7844 115.131V98.0426H87.5844V115.131H82.7844ZM93.1044 115.131V98.0426H97.9044V115.131H93.1044ZM85.4004 108.411V104.427H94.9764V108.411H85.4004Z" fill="#2D4C7E"/>
<path d="M104.818 115.131V98.0426H109.618V115.131H104.818ZM99.7055 102.123V98.0426H114.754V102.123H99.7055ZM113.411 115.131L119.915 98.0426H124.811L131.243 115.131H126.251L121.475 100.611H123.203L118.307 115.131H113.411ZM117.635 112.251V108.507H127.187V112.251H117.635ZM132.613 115.131V98.0426H137.413V115.131H132.613ZM136.525 115.131V111.051H144.517V115.131H136.525ZM156.715 115.131L150.739 106.227L156.427 98.0426H162.211L155.635 106.923L155.611 105.387L162.475 115.131H156.715ZM146.347 115.131V98.0426H151.147V115.131H146.347Z" fill="#5FBBE8"/>
</g>
</g>
</g>
<defs>
<clipPath id="clip0_0_1">
<rect width="190" height="130" fill="white"/>
</clipPath>
</defs>
</svg>
